<mxfile host="app.diagrams.net" modified="2022-11-28T11:58:26.532Z" agent="5.0 (Windows NT 10.0; Win64; x64) AppleWebKit/537.36 (KHTML, like Gecko) Chrome/107.0.0.0 Safari/537.36 Edg/107.0.1418.56" etag="dbKTKnrMxjggrCKTKqoC" version="20.6.0" type="github">
  <diagram id="C5RBs43oDa-KdzZeNtuy" name="Page-1">
    <mxGraphModel dx="1185" dy="628" grid="1" gridSize="10" guides="1" tooltips="1" connect="1" arrows="1" fold="1" page="1" pageScale="1" pageWidth="827" pageHeight="1169" math="0" shadow="0">
      <root>
        <mxCell id="WIyWlLk6GJQsqaUBKTNV-0" />
        <mxCell id="WIyWlLk6GJQsqaUBKTNV-1" parent="WIyWlLk6GJQsqaUBKTNV-0" />
        <mxCell id="51BSOs0XTWdcMv7clfH0-10" value="&lt;span style=&quot;text-align: left;&quot;&gt;callAddress&lt;/span&gt;" style="rounded=1;whiteSpace=wrap;html=1;labelBackgroundColor=none;fillColor=#dae8fc;strokeColor=#6c8ebf;movable=1;resizable=1;rotatable=1;deletable=1;editable=1;connectable=1;" parent="WIyWlLk6GJQsqaUBKTNV-1" vertex="1">
          <mxGeometry x="120" y="170" width="80" height="30" as="geometry" />
        </mxCell>
        <mxCell id="51BSOs0XTWdcMv7clfH0-11" value="&lt;span style=&quot;text-align: left;&quot;&gt;oracle&lt;/span&gt;" style="rounded=1;whiteSpace=wrap;html=1;labelBackgroundColor=none;fillColor=#dae8fc;strokeColor=#6c8ebf;movable=1;resizable=1;rotatable=1;deletable=1;editable=1;connectable=1;" parent="WIyWlLk6GJQsqaUBKTNV-1" vertex="1">
          <mxGeometry x="120" y="214.5" width="80" height="30" as="geometry" />
        </mxCell>
        <mxCell id="51BSOs0XTWdcMv7clfH0-12" value="&lt;span style=&quot;text-align: left;&quot;&gt;accessType&lt;/span&gt;" style="rounded=1;whiteSpace=wrap;html=1;labelBackgroundColor=none;fillColor=#dae8fc;strokeColor=#6c8ebf;movable=1;resizable=1;rotatable=1;deletable=1;editable=1;connectable=1;" parent="WIyWlLk6GJQsqaUBKTNV-1" vertex="1">
          <mxGeometry x="120" y="260" width="80" height="30" as="geometry" />
        </mxCell>
        <mxCell id="51BSOs0XTWdcMv7clfH0-13" value="&lt;span style=&quot;text-align: left;&quot;&gt;requestId&lt;/span&gt;" style="rounded=1;whiteSpace=wrap;html=1;labelBackgroundColor=none;fillColor=#dae8fc;strokeColor=#6c8ebf;movable=1;resizable=1;rotatable=1;deletable=1;editable=1;connectable=1;" parent="WIyWlLk6GJQsqaUBKTNV-1" vertex="1">
          <mxGeometry x="120" y="310" width="80" height="30" as="geometry" />
        </mxCell>
        <mxCell id="51BSOs0XTWdcMv7clfH0-14" value="&lt;span style=&quot;text-align: left;&quot;&gt;data&lt;/span&gt;" style="rounded=1;whiteSpace=wrap;html=1;labelBackgroundColor=none;fillColor=#dae8fc;strokeColor=#6c8ebf;movable=1;resizable=1;rotatable=1;deletable=1;editable=1;connectable=1;" parent="WIyWlLk6GJQsqaUBKTNV-1" vertex="1">
          <mxGeometry x="120" y="360" width="80" height="30" as="geometry" />
        </mxCell>
        <mxCell id="51BSOs0XTWdcMv7clfH0-21" style="edgeStyle=orthogonalEdgeStyle;rounded=0;orthogonalLoop=1;jettySize=auto;html=1;exitX=0;exitY=0.5;exitDx=0;exitDy=0;entryX=1;entryY=0.5;entryDx=0;entryDy=0;fontColor=default;movable=1;resizable=1;rotatable=1;deletable=1;editable=1;connectable=1;" parent="WIyWlLk6GJQsqaUBKTNV-1" source="51BSOs0XTWdcMv7clfH0-19" target="51BSOs0XTWdcMv7clfH0-11" edge="1">
          <mxGeometry relative="1" as="geometry" />
        </mxCell>
        <mxCell id="51BSOs0XTWdcMv7clfH0-19" value="zltc_amPge82fy3fJsLD1eSerqCBEfgjpU43S4&lt;br&gt;0x7261636C65436f6E747261637441646472657373" style="text;whiteSpace=wrap;html=1;fontColor=default;movable=1;resizable=1;rotatable=1;deletable=1;editable=1;connectable=1;" parent="WIyWlLk6GJQsqaUBKTNV-1" vertex="1">
          <mxGeometry x="270" y="165" width="280" height="40" as="geometry" />
        </mxCell>
        <mxCell id="51BSOs0XTWdcMv7clfH0-53" style="edgeStyle=orthogonalEdgeStyle;rounded=0;orthogonalLoop=1;jettySize=auto;html=1;exitX=0;exitY=0.5;exitDx=0;exitDy=0;fontColor=#000000;entryX=1;entryY=0.5;entryDx=0;entryDy=0;movable=1;resizable=1;rotatable=1;deletable=1;editable=1;connectable=1;" parent="WIyWlLk6GJQsqaUBKTNV-1" source="51BSOs0XTWdcMv7clfH0-34" target="51BSOs0XTWdcMv7clfH0-25" edge="1">
          <mxGeometry relative="1" as="geometry">
            <mxPoint x="384" y="540" as="targetPoint" />
            <Array as="points">
              <mxPoint x="420" y="415" />
              <mxPoint x="420" y="535" />
            </Array>
          </mxGeometry>
        </mxCell>
        <mxCell id="51BSOs0XTWdcMv7clfH0-22" value="&lt;span style=&quot;text-align: left;&quot;&gt;url&lt;/span&gt;" style="rounded=1;whiteSpace=wrap;html=1;labelBackgroundColor=none;fillColor=#d5e8d4;strokeColor=#82b366;movable=1;resizable=1;rotatable=1;deletable=1;editable=1;connectable=1;" parent="WIyWlLk6GJQsqaUBKTNV-1" vertex="1">
          <mxGeometry x="286" y="440" width="80" height="30" as="geometry" />
        </mxCell>
        <mxCell id="51BSOs0XTWdcMv7clfH0-24" value="&lt;span style=&quot;text-align: left;&quot;&gt;methodName&lt;/span&gt;" style="rounded=1;whiteSpace=wrap;html=1;labelBackgroundColor=none;fillColor=#d5e8d4;strokeColor=#82b366;movable=1;resizable=1;rotatable=1;deletable=1;editable=1;connectable=1;" parent="WIyWlLk6GJQsqaUBKTNV-1" vertex="1">
          <mxGeometry x="286" y="480" width="80" height="30" as="geometry" />
        </mxCell>
        <mxCell id="51BSOs0XTWdcMv7clfH0-25" value="&lt;span style=&quot;text-align: left;&quot;&gt;arg&lt;/span&gt;" style="rounded=1;whiteSpace=wrap;html=1;labelBackgroundColor=none;fillColor=#d5e8d4;strokeColor=#82b366;movable=1;resizable=1;rotatable=1;deletable=1;editable=1;connectable=1;" parent="WIyWlLk6GJQsqaUBKTNV-1" vertex="1">
          <mxGeometry x="286" y="520" width="80" height="30" as="geometry" />
        </mxCell>
        <mxCell id="51BSOs0XTWdcMv7clfH0-76" style="edgeStyle=orthogonalEdgeStyle;rounded=0;orthogonalLoop=1;jettySize=auto;html=1;entryX=1;entryY=0.5;entryDx=0;entryDy=0;fontColor=#A680B8;movable=1;resizable=1;rotatable=1;deletable=1;editable=1;connectable=1;" parent="WIyWlLk6GJQsqaUBKTNV-1" source="51BSOs0XTWdcMv7clfH0-75" target="51BSOs0XTWdcMv7clfH0-12" edge="1">
          <mxGeometry relative="1" as="geometry" />
        </mxCell>
        <mxCell id="51BSOs0XTWdcMv7clfH0-75" value="类型1：conrtactData 晶格链与晶格链间跨链调用合约&lt;br&gt;类型2：zltcChainContractData 晶格链间与通过baas代理跨链调用合约&lt;br&gt;类型3：diffChainContractData 晶格链与异构链通过异构链代理跨链调用合约" style="text;whiteSpace=wrap;html=1;fontColor=default;movable=1;resizable=1;rotatable=1;deletable=1;editable=1;connectable=1;" parent="WIyWlLk6GJQsqaUBKTNV-1" vertex="1">
          <mxGeometry x="270" y="247.5" width="420" height="55" as="geometry" />
        </mxCell>
        <mxCell id="JchH3dlNpe_ZmkbuLp-2-22" style="edgeStyle=orthogonalEdgeStyle;rounded=0;orthogonalLoop=1;jettySize=auto;html=1;entryX=1;entryY=0.5;entryDx=0;entryDy=0;fontColor=#000000;" edge="1" parent="WIyWlLk6GJQsqaUBKTNV-1" source="51BSOs0XTWdcMv7clfH0-77" target="51BSOs0XTWdcMv7clfH0-14">
          <mxGeometry relative="1" as="geometry" />
        </mxCell>
        <mxCell id="51BSOs0XTWdcMv7clfH0-77" value="" style="rounded=1;whiteSpace=wrap;html=1;dashed=1;labelBackgroundColor=none;strokeColor=#82b366;fillColor=none;movable=1;resizable=1;rotatable=1;deletable=1;editable=1;connectable=1;" parent="WIyWlLk6GJQsqaUBKTNV-1" vertex="1">
          <mxGeometry x="271" y="420" width="110" height="147.5" as="geometry" />
        </mxCell>
        <mxCell id="51BSOs0XTWdcMv7clfH0-34" value="" style="rounded=1;whiteSpace=wrap;html=1;labelBackgroundColor=none;dashed=1;strokeColor=#d79b00;fillColor=none;movable=1;resizable=1;rotatable=1;deletable=1;editable=1;connectable=1;" parent="WIyWlLk6GJQsqaUBKTNV-1" vertex="1">
          <mxGeometry x="460" y="310" width="270" height="220" as="geometry" />
        </mxCell>
        <mxCell id="51BSOs0XTWdcMv7clfH0-35" value="&lt;pre style=&quot;background-color:#2b2b2b;color:#a9b7c6;font-family:&#39;Consolas&#39;,monospace;font-size:11.3pt;&quot;&gt;&lt;br&gt;&lt;/pre&gt;" style="text;whiteSpace=wrap;html=1;fontColor=default;movable=1;resizable=1;rotatable=1;deletable=1;editable=1;connectable=1;" parent="WIyWlLk6GJQsqaUBKTNV-1" vertex="1">
          <mxGeometry x="448" y="340" width="112" height="50" as="geometry" />
        </mxCell>
        <mxCell id="51BSOs0XTWdcMv7clfH0-31" value="&lt;span style=&quot;text-align: left;&quot;&gt;owner&lt;/span&gt;" style="rounded=1;whiteSpace=wrap;html=1;labelBackgroundColor=none;fillColor=#ffe6cc;strokeColor=#d79b00;movable=1;resizable=1;rotatable=1;deletable=1;editable=1;connectable=1;" parent="WIyWlLk6GJQsqaUBKTNV-1" vertex="1">
          <mxGeometry x="488" y="340" width="80" height="20" as="geometry" />
        </mxCell>
        <mxCell id="51BSOs0XTWdcMv7clfH0-33" value="&lt;span style=&quot;text-align: left;&quot;&gt;number&lt;/span&gt;" style="rounded=1;whiteSpace=wrap;html=1;labelBackgroundColor=none;fillColor=#ffe6cc;strokeColor=#d79b00;movable=1;resizable=1;rotatable=1;deletable=1;editable=1;connectable=1;" parent="WIyWlLk6GJQsqaUBKTNV-1" vertex="1">
          <mxGeometry x="488" y="400" width="80" height="20" as="geometry" />
        </mxCell>
        <mxCell id="51BSOs0XTWdcMv7clfH0-37" value="&lt;pre style=&quot;font-family: Consolas, monospace; font-size: 11.3pt;&quot;&gt;&lt;font color=&quot;#ff9933&quot;&gt;GetChainInfoParam&lt;/font&gt;&lt;/pre&gt;" style="text;html=1;align=center;verticalAlign=middle;resizable=1;points=[];autosize=1;strokeColor=none;fillColor=none;dashed=1;labelBackgroundColor=none;movable=1;rotatable=1;deletable=1;editable=1;connectable=1;" parent="WIyWlLk6GJQsqaUBKTNV-1" vertex="1">
          <mxGeometry x="515" y="310" width="160" height="30" as="geometry" />
        </mxCell>
        <mxCell id="51BSOs0XTWdcMv7clfH0-39" value="&lt;div style=&quot;text-align: left;&quot;&gt;hash&lt;/div&gt;" style="rounded=1;whiteSpace=wrap;html=1;labelBackgroundColor=none;fillColor=#ffe6cc;strokeColor=#d79b00;movable=1;resizable=1;rotatable=1;deletable=1;editable=1;connectable=1;" parent="WIyWlLk6GJQsqaUBKTNV-1" vertex="1">
          <mxGeometry x="488" y="430" width="80" height="20" as="geometry" />
        </mxCell>
        <mxCell id="51BSOs0XTWdcMv7clfH0-40" value="&lt;div style=&quot;text-align: left;&quot;&gt;type&lt;/div&gt;" style="rounded=1;whiteSpace=wrap;html=1;labelBackgroundColor=none;fillColor=#ffe6cc;strokeColor=#d79b00;movable=1;resizable=1;rotatable=1;deletable=1;editable=1;connectable=1;" parent="WIyWlLk6GJQsqaUBKTNV-1" vertex="1">
          <mxGeometry x="488" y="460" width="80" height="20" as="geometry" />
        </mxCell>
        <mxCell id="51BSOs0XTWdcMv7clfH0-41" value="&lt;div style=&quot;text-align: left;&quot;&gt;linker&lt;/div&gt;" style="rounded=1;whiteSpace=wrap;html=1;labelBackgroundColor=none;fillColor=#ffe6cc;strokeColor=#d79b00;movable=1;resizable=1;rotatable=1;deletable=1;editable=1;connectable=1;" parent="WIyWlLk6GJQsqaUBKTNV-1" vertex="1">
          <mxGeometry x="488" y="370" width="80" height="20" as="geometry" />
        </mxCell>
        <mxCell id="51BSOs0XTWdcMv7clfH0-42" value="&lt;div style=&quot;text-align: left;&quot;&gt;code&lt;/div&gt;" style="rounded=1;whiteSpace=wrap;html=1;labelBackgroundColor=none;fillColor=#ffe6cc;strokeColor=#d79b00;movable=1;resizable=1;rotatable=1;deletable=1;editable=1;connectable=1;" parent="WIyWlLk6GJQsqaUBKTNV-1" vertex="1">
          <mxGeometry x="488" y="490" width="80" height="20" as="geometry" />
        </mxCell>
        <mxCell id="JchH3dlNpe_ZmkbuLp-2-3" value="&lt;pre style=&quot;font-family: Consolas, monospace; font-size: 11.3pt;&quot;&gt;发起者账户地址&lt;/pre&gt;" style="text;html=1;align=center;verticalAlign=middle;resizable=1;points=[];autosize=1;strokeColor=none;fillColor=none;dashed=1;labelBackgroundColor=none;movable=1;rotatable=1;deletable=1;editable=1;connectable=1;" vertex="1" parent="WIyWlLk6GJQsqaUBKTNV-1">
          <mxGeometry x="568" y="335" width="130" height="30" as="geometry" />
        </mxCell>
        <mxCell id="JchH3dlNpe_ZmkbuLp-2-4" value="&lt;pre style=&quot;font-family: Consolas, monospace; font-size: 11.3pt;&quot;&gt;接收者账户地址&lt;/pre&gt;" style="text;html=1;align=center;verticalAlign=middle;resizable=1;points=[];autosize=1;strokeColor=none;fillColor=none;dashed=1;labelBackgroundColor=none;movable=1;rotatable=1;deletable=1;editable=1;connectable=1;" vertex="1" parent="WIyWlLk6GJQsqaUBKTNV-1">
          <mxGeometry x="568" y="365" width="130" height="30" as="geometry" />
        </mxCell>
        <mxCell id="JchH3dlNpe_ZmkbuLp-2-5" value="&lt;pre style=&quot;font-family: Consolas, monospace; font-size: 11.3pt;&quot;&gt;区块高度&lt;/pre&gt;" style="text;html=1;align=center;verticalAlign=middle;resizable=1;points=[];autosize=1;strokeColor=none;fillColor=none;dashed=1;labelBackgroundColor=none;movable=1;rotatable=1;deletable=1;editable=1;connectable=1;" vertex="1" parent="WIyWlLk6GJQsqaUBKTNV-1">
          <mxGeometry x="568" y="395" width="82" height="30" as="geometry" />
        </mxCell>
        <mxCell id="JchH3dlNpe_ZmkbuLp-2-6" value="&lt;pre style=&quot;font-family: Consolas, monospace; font-size: 11.3pt;&quot;&gt;区块哈希/交易哈希&lt;/pre&gt;" style="text;html=1;align=center;verticalAlign=middle;resizable=1;points=[];autosize=1;strokeColor=none;fillColor=none;dashed=1;labelBackgroundColor=none;movable=1;rotatable=1;deletable=1;editable=1;connectable=1;" vertex="1" parent="WIyWlLk6GJQsqaUBKTNV-1">
          <mxGeometry x="568" y="420" width="152" height="40" as="geometry" />
        </mxCell>
        <mxCell id="JchH3dlNpe_ZmkbuLp-2-7" value="&lt;pre style=&quot;font-family: Consolas, monospace; font-size: 11.3pt;&quot;&gt;交易类型&lt;/pre&gt;" style="text;html=1;align=center;verticalAlign=middle;resizable=1;points=[];autosize=1;strokeColor=none;fillColor=none;dashed=1;labelBackgroundColor=none;movable=1;rotatable=1;deletable=1;editable=1;connectable=1;" vertex="1" parent="WIyWlLk6GJQsqaUBKTNV-1">
          <mxGeometry x="568" y="455" width="86" height="30" as="geometry" />
        </mxCell>
        <mxCell id="JchH3dlNpe_ZmkbuLp-2-8" value="&lt;pre style=&quot;font-family: Consolas, monospace; font-size: 11.3pt;&quot;&gt;合约调用code&lt;/pre&gt;" style="text;html=1;align=center;verticalAlign=middle;resizable=1;points=[];autosize=1;strokeColor=none;fillColor=none;dashed=1;labelBackgroundColor=none;movable=1;rotatable=1;deletable=1;editable=1;connectable=1;" vertex="1" parent="WIyWlLk6GJQsqaUBKTNV-1">
          <mxGeometry x="568" y="485" width="112" height="30" as="geometry" />
        </mxCell>
        <mxCell id="JchH3dlNpe_ZmkbuLp-2-11" value="" style="group" vertex="1" connectable="0" parent="WIyWlLk6GJQsqaUBKTNV-1">
          <mxGeometry x="467.25" y="570" width="245.5" height="100" as="geometry" />
        </mxCell>
        <mxCell id="51BSOs0XTWdcMv7clfH0-45" value="&lt;span style=&quot;text-align: left;&quot;&gt;accountAddress&lt;/span&gt;" style="rounded=1;whiteSpace=wrap;html=1;labelBackgroundColor=none;fillColor=#f8cecc;strokeColor=#b85450;container=0;movable=1;resizable=1;rotatable=1;deletable=1;editable=1;connectable=1;" parent="JchH3dlNpe_ZmkbuLp-2-11" vertex="1">
          <mxGeometry x="14.75" y="40" width="98" height="20" as="geometry" />
        </mxCell>
        <mxCell id="51BSOs0XTWdcMv7clfH0-48" value="&lt;pre style=&quot;font-family: Consolas, monospace; font-size: 11.3pt;&quot;&gt;&lt;pre style=&quot;font-family: Consolas, monospace; font-size: 11.3pt;&quot;&gt;&lt;font style=&quot;&quot; color=&quot;#ea6b66&quot;&gt;ZltcChainInfoParam&lt;/font&gt;&lt;/pre&gt;&lt;/pre&gt;" style="text;html=1;align=center;verticalAlign=middle;resizable=1;points=[];autosize=1;strokeColor=none;fillColor=none;dashed=1;labelBackgroundColor=none;container=0;movable=1;rotatable=1;deletable=1;editable=1;connectable=1;" parent="JchH3dlNpe_ZmkbuLp-2-11" vertex="1">
          <mxGeometry x="37.75" y="0.25" width="170" height="35" as="geometry" />
        </mxCell>
        <mxCell id="51BSOs0XTWdcMv7clfH0-51" value="&lt;div style=&quot;text-align: left;&quot;&gt;hash&lt;/div&gt;" style="rounded=1;whiteSpace=wrap;html=1;labelBackgroundColor=none;fillColor=#f8cecc;strokeColor=#b85450;container=0;movable=1;resizable=1;rotatable=1;deletable=1;editable=1;connectable=1;" parent="JchH3dlNpe_ZmkbuLp-2-11" vertex="1">
          <mxGeometry x="14.75" y="70" width="98" height="20" as="geometry" />
        </mxCell>
        <mxCell id="51BSOs0XTWdcMv7clfH0-69" value="" style="rounded=1;whiteSpace=wrap;html=1;dashed=1;labelBackgroundColor=none;strokeColor=#b85450;fillColor=none;movable=1;resizable=1;rotatable=1;deletable=1;editable=1;connectable=1;container=0;" parent="JchH3dlNpe_ZmkbuLp-2-11" vertex="1">
          <mxGeometry width="245.5" height="100" as="geometry" />
        </mxCell>
        <mxCell id="JchH3dlNpe_ZmkbuLp-2-9" value="&lt;pre style=&quot;font-family: Consolas, monospace; font-size: 11.3pt;&quot;&gt;&lt;pre style=&quot;font-family: Consolas, monospace; font-size: 11.3pt;&quot;&gt;账户地址&lt;/pre&gt;&lt;/pre&gt;" style="text;html=1;align=center;verticalAlign=middle;resizable=1;points=[];autosize=1;strokeColor=none;fillColor=none;dashed=1;labelBackgroundColor=none;container=0;movable=1;rotatable=1;deletable=1;editable=1;connectable=1;" vertex="1" parent="JchH3dlNpe_ZmkbuLp-2-11">
          <mxGeometry x="112.75" y="35.25" width="90" height="29.5" as="geometry" />
        </mxCell>
        <mxCell id="JchH3dlNpe_ZmkbuLp-2-10" value="&lt;pre style=&quot;font-family: Consolas, monospace; font-size: 11.3pt;&quot;&gt;&lt;pre style=&quot;font-family: Consolas, monospace; font-size: 11.3pt;&quot;&gt;查询的交易哈希&lt;/pre&gt;&lt;/pre&gt;" style="text;html=1;align=center;verticalAlign=middle;resizable=1;points=[];autosize=1;strokeColor=none;fillColor=none;dashed=1;labelBackgroundColor=none;container=0;movable=1;rotatable=1;deletable=1;editable=1;connectable=1;" vertex="1" parent="JchH3dlNpe_ZmkbuLp-2-11">
          <mxGeometry x="113.75" y="65" width="130" height="30" as="geometry" />
        </mxCell>
        <mxCell id="JchH3dlNpe_ZmkbuLp-2-12" style="edgeStyle=orthogonalEdgeStyle;rounded=0;orthogonalLoop=1;jettySize=auto;html=1;entryX=0.5;entryY=1;entryDx=0;entryDy=0;fontColor=#000000;" edge="1" parent="WIyWlLk6GJQsqaUBKTNV-1" source="51BSOs0XTWdcMv7clfH0-69" target="51BSOs0XTWdcMv7clfH0-25">
          <mxGeometry relative="1" as="geometry" />
        </mxCell>
        <mxCell id="JchH3dlNpe_ZmkbuLp-2-19" value="" style="group" vertex="1" connectable="0" parent="WIyWlLk6GJQsqaUBKTNV-1">
          <mxGeometry x="50" y="584.5" width="190" height="232.5" as="geometry" />
        </mxCell>
        <mxCell id="51BSOs0XTWdcMv7clfH0-59" value="&lt;span style=&quot;text-align: left;&quot;&gt;blockChainId&lt;/span&gt;" style="rounded=1;whiteSpace=wrap;html=1;labelBackgroundColor=none;fillColor=#e1d5e7;strokeColor=#9673a6;container=0;movable=1;resizable=1;rotatable=1;deletable=1;editable=1;connectable=1;" parent="JchH3dlNpe_ZmkbuLp-2-19" vertex="1">
          <mxGeometry x="19" y="42.5" width="80" height="20" as="geometry" />
        </mxCell>
        <mxCell id="51BSOs0XTWdcMv7clfH0-60" value="&lt;span style=&quot;text-align: left;&quot;&gt;channelName&lt;/span&gt;" style="rounded=1;whiteSpace=wrap;html=1;labelBackgroundColor=none;fillColor=#e1d5e7;strokeColor=#9673a6;container=0;movable=1;resizable=1;rotatable=1;deletable=1;editable=1;connectable=1;" parent="JchH3dlNpe_ZmkbuLp-2-19" vertex="1">
          <mxGeometry x="19" y="102.5" width="80" height="20" as="geometry" />
        </mxCell>
        <mxCell id="51BSOs0XTWdcMv7clfH0-61" value="" style="rounded=1;whiteSpace=wrap;html=1;labelBackgroundColor=none;dashed=1;strokeColor=#9673a6;fillColor=none;movable=1;resizable=1;rotatable=1;deletable=1;editable=1;connectable=1;container=0;" parent="JchH3dlNpe_ZmkbuLp-2-19" vertex="1">
          <mxGeometry width="190" height="232.5" as="geometry" />
        </mxCell>
        <mxCell id="51BSOs0XTWdcMv7clfH0-62" value="&lt;pre style=&quot;font-family: Consolas, monospace; font-size: 11.3pt;&quot;&gt;&lt;font color=&quot;#a680b8&quot;&gt;DiffChainInfoParam&lt;/font&gt;&lt;/pre&gt;" style="text;html=1;align=center;verticalAlign=middle;resizable=1;points=[];autosize=1;strokeColor=none;fillColor=none;dashed=1;labelBackgroundColor=none;container=0;movable=1;rotatable=1;deletable=1;editable=1;connectable=1;" parent="JchH3dlNpe_ZmkbuLp-2-19" vertex="1">
          <mxGeometry x="10" y="2.5" width="170" height="30" as="geometry" />
        </mxCell>
        <mxCell id="51BSOs0XTWdcMv7clfH0-63" value="&lt;div style=&quot;text-align: left;&quot;&gt;contractName&lt;/div&gt;" style="rounded=1;whiteSpace=wrap;html=1;labelBackgroundColor=none;fillColor=#e1d5e7;strokeColor=#9673a6;container=0;movable=1;resizable=1;rotatable=1;deletable=1;editable=1;connectable=1;" parent="JchH3dlNpe_ZmkbuLp-2-19" vertex="1">
          <mxGeometry x="19" y="132.5" width="80" height="20" as="geometry" />
        </mxCell>
        <mxCell id="51BSOs0XTWdcMv7clfH0-64" value="&lt;div style=&quot;text-align: left;&quot;&gt;methodName&lt;/div&gt;" style="rounded=1;whiteSpace=wrap;html=1;labelBackgroundColor=none;fillColor=#e1d5e7;strokeColor=#9673a6;container=0;movable=1;resizable=1;rotatable=1;deletable=1;editable=1;connectable=1;" parent="JchH3dlNpe_ZmkbuLp-2-19" vertex="1">
          <mxGeometry x="19" y="162.5" width="80" height="20" as="geometry" />
        </mxCell>
        <mxCell id="51BSOs0XTWdcMv7clfH0-65" value="&lt;div style=&quot;text-align: left;&quot;&gt;orgName&lt;/div&gt;" style="rounded=1;whiteSpace=wrap;html=1;labelBackgroundColor=none;fillColor=#e1d5e7;strokeColor=#9673a6;container=0;movable=1;resizable=1;rotatable=1;deletable=1;editable=1;connectable=1;" parent="JchH3dlNpe_ZmkbuLp-2-19" vertex="1">
          <mxGeometry x="19" y="72.5" width="80" height="20" as="geometry" />
        </mxCell>
        <mxCell id="51BSOs0XTWdcMv7clfH0-66" value="&lt;div style=&quot;text-align: left;&quot;&gt;args&lt;/div&gt;" style="rounded=1;whiteSpace=wrap;html=1;labelBackgroundColor=none;fillColor=#e1d5e7;strokeColor=#9673a6;container=0;movable=1;resizable=1;rotatable=1;deletable=1;editable=1;connectable=1;" parent="JchH3dlNpe_ZmkbuLp-2-19" vertex="1">
          <mxGeometry x="19" y="192.5" width="80" height="20" as="geometry" />
        </mxCell>
        <mxCell id="JchH3dlNpe_ZmkbuLp-2-13" value="&lt;pre style=&quot;font-family: Consolas, monospace; font-size: 11.3pt;&quot;&gt;目的链id&lt;/pre&gt;" style="text;html=1;align=center;verticalAlign=middle;resizable=1;points=[];autosize=1;strokeColor=none;fillColor=none;dashed=1;labelBackgroundColor=none;container=0;movable=1;rotatable=1;deletable=1;editable=1;connectable=1;" vertex="1" parent="JchH3dlNpe_ZmkbuLp-2-19">
          <mxGeometry x="99" y="37.5" width="80" height="30" as="geometry" />
        </mxCell>
        <mxCell id="JchH3dlNpe_ZmkbuLp-2-14" value="&lt;pre style=&quot;font-family: Consolas, monospace; font-size: 11.3pt;&quot;&gt;组织名称&lt;/pre&gt;" style="text;html=1;align=center;verticalAlign=middle;resizable=1;points=[];autosize=1;strokeColor=none;fillColor=none;dashed=1;labelBackgroundColor=none;container=0;movable=1;rotatable=1;deletable=1;editable=1;connectable=1;" vertex="1" parent="JchH3dlNpe_ZmkbuLp-2-19">
          <mxGeometry x="99" y="52.5" width="80" height="60" as="geometry" />
        </mxCell>
        <mxCell id="JchH3dlNpe_ZmkbuLp-2-15" value="&lt;pre style=&quot;font-family: Consolas, monospace; font-size: 11.3pt;&quot;&gt;通道名称&lt;/pre&gt;" style="text;html=1;align=center;verticalAlign=middle;resizable=1;points=[];autosize=1;strokeColor=none;fillColor=none;dashed=1;labelBackgroundColor=none;container=0;movable=1;rotatable=1;deletable=1;editable=1;connectable=1;" vertex="1" parent="JchH3dlNpe_ZmkbuLp-2-19">
          <mxGeometry x="99" y="97.5" width="80" height="30" as="geometry" />
        </mxCell>
        <mxCell id="JchH3dlNpe_ZmkbuLp-2-16" value="&lt;pre style=&quot;font-family: Consolas, monospace; font-size: 11.3pt;&quot;&gt;合约名称&lt;/pre&gt;" style="text;html=1;align=center;verticalAlign=middle;resizable=1;points=[];autosize=1;strokeColor=none;fillColor=none;dashed=1;labelBackgroundColor=none;container=0;movable=1;rotatable=1;deletable=1;editable=1;connectable=1;" vertex="1" parent="JchH3dlNpe_ZmkbuLp-2-19">
          <mxGeometry x="99" y="128.75" width="80" height="27.5" as="geometry" />
        </mxCell>
        <mxCell id="JchH3dlNpe_ZmkbuLp-2-17" value="&lt;pre style=&quot;font-family: Consolas, monospace; font-size: 11.3pt;&quot;&gt;方法名称&lt;/pre&gt;" style="text;html=1;align=center;verticalAlign=middle;resizable=1;points=[];autosize=1;strokeColor=none;fillColor=none;dashed=1;labelBackgroundColor=none;container=0;movable=1;rotatable=1;deletable=1;editable=1;connectable=1;" vertex="1" parent="JchH3dlNpe_ZmkbuLp-2-19">
          <mxGeometry x="99" y="157.63" width="80" height="29.75" as="geometry" />
        </mxCell>
        <mxCell id="JchH3dlNpe_ZmkbuLp-2-18" value="&lt;pre style=&quot;font-family: Consolas, monospace; font-size: 11.3pt;&quot;&gt;方法参数&lt;/pre&gt;" style="text;html=1;align=center;verticalAlign=middle;resizable=1;points=[];autosize=1;strokeColor=none;fillColor=none;dashed=1;labelBackgroundColor=none;container=0;movable=1;rotatable=1;deletable=1;editable=1;connectable=1;" vertex="1" parent="JchH3dlNpe_ZmkbuLp-2-19">
          <mxGeometry x="99" y="192.5" width="80" height="20.12" as="geometry" />
        </mxCell>
        <mxCell id="JchH3dlNpe_ZmkbuLp-2-21" style="edgeStyle=orthogonalEdgeStyle;rounded=0;orthogonalLoop=1;jettySize=auto;html=1;entryX=0;entryY=0.5;entryDx=0;entryDy=0;fontColor=#000000;" edge="1" parent="WIyWlLk6GJQsqaUBKTNV-1" source="51BSOs0XTWdcMv7clfH0-61" target="51BSOs0XTWdcMv7clfH0-25">
          <mxGeometry relative="1" as="geometry" />
        </mxCell>
      </root>
    </mxGraphModel>
  </diagram>
</mxfile>
